<svg width="118" height="137" viewBox="0 0 118 137" fill="none" xmlns="http://www.w3.org/2000/svg">
<path d="M22.1231 34.25V20.55C22.1231 9.20069 32.0313 0 44.25 0C49.9178 0 55.087 1.97851 59 5.23264C62.913 1.97851 68.0822 0 73.75 0C85.9687 0 95.8769 9.20069 95.8769 20.55V34.25H106.938C113.048 34.25 118 38.8502 118 44.525V109.6C118 119.237 112.644 127.712 104.544 132.597L100.521 131.94C94.8073 131.008 88.9149 128.083 84.4804 123.909C80.0535 119.74 77.4384 114.686 77.4384 109.6V34.25H84.8116V20.55C84.8116 14.8752 79.8594 10.275 73.75 10.275C70.3204 10.275 67.2562 11.7242 65.2274 13.9991C65.9734 16.0568 66.3769 18.2594 66.3769 20.55V109.6C66.3769 118.018 70.6668 125.535 76.6048 131.125C78.9763 133.357 81.6674 135.34 84.5641 137H29.5C13.2084 137 0 124.732 0 109.6V44.525C0 38.8502 4.95219 34.25 11.0615 34.25H22.1231ZM33.1885 20.55V34.25H55.3115V20.55C55.3115 14.8752 50.3594 10.275 44.25 10.275C38.1406 10.275 33.1885 14.8752 33.1885 20.55Z" fill="white"/>
</svg>
