<svg width="974" height="272" viewBox="0 0 974 272" fill="none" xmlns="http://www.w3.org/2000/svg">
<path d="M165.631 100.511C165.282 97.3575 163.838 94.9143 161.3 93.1818C158.763 91.427 155.57 90.5498 151.72 90.5498C148.964 90.5498 146.58 90.9939 144.567 91.8824C142.555 92.7487 140.991 93.948 139.875 95.4807C138.781 96.9908 138.235 98.7124 138.235 100.645C138.235 102.266 138.607 103.665 139.35 104.842C140.116 106.02 141.111 107.008 142.336 107.808C143.583 108.585 144.917 109.24 146.339 109.773C147.761 110.284 149.128 110.706 150.44 111.039L157.003 112.771C159.146 113.305 161.344 114.027 163.597 114.937C165.851 115.848 167.939 117.047 169.864 118.535C171.789 120.024 173.342 121.867 174.523 124.066C175.726 126.265 176.328 128.896 176.328 131.962C176.328 135.826 175.344 139.258 173.375 142.257C171.428 145.255 168.595 147.62 164.877 149.353C161.18 151.085 156.707 151.951 151.457 151.951C146.426 151.951 142.073 151.141 138.399 149.519C134.724 147.898 131.848 145.599 129.769 142.623C127.691 139.625 126.543 136.071 126.324 131.962H136.496C136.692 134.427 137.48 136.482 138.858 138.125C140.258 139.747 142.041 140.957 144.206 141.757C146.394 142.534 148.789 142.923 151.392 142.923C154.257 142.923 156.805 142.467 159.037 141.557C161.29 140.624 163.061 139.336 164.352 137.692C165.643 136.026 166.288 134.083 166.288 131.862C166.288 129.84 165.719 128.186 164.582 126.898C163.466 125.609 161.946 124.543 160.021 123.699C158.118 122.855 155.963 122.111 153.557 121.467L145.617 119.268C140.236 117.78 135.971 115.592 132.821 112.705C129.693 109.818 128.129 105.997 128.129 101.244C128.129 97.3129 129.179 93.8815 131.279 90.9497C133.379 88.0179 136.222 85.7412 139.81 84.1198C143.397 82.476 147.443 81.6543 151.95 81.6543C156.499 81.6543 160.513 82.465 163.991 84.0865C167.491 85.708 170.247 87.9401 172.259 90.7828C174.272 93.6036 175.322 96.8466 175.409 100.511H165.631ZM219.581 129.596V99.6451H229.424V150.819H219.778V141.957H219.253C218.093 144.688 216.234 146.965 213.675 148.786C211.138 150.585 207.977 151.485 204.193 151.485C200.955 151.485 198.09 150.763 195.596 149.319C193.124 147.854 191.178 145.688 189.756 142.823C188.356 139.958 187.656 136.415 187.656 132.195V99.6451H197.466V130.996C197.466 134.483 198.418 137.259 200.321 139.325C202.224 141.39 204.696 142.423 207.736 142.423C209.573 142.423 211.4 141.957 213.215 141.024C215.053 140.091 216.573 138.681 217.776 136.792C219.001 134.905 219.603 132.506 219.581 129.596ZM242.606 170.009V99.6451H252.187V107.941H253.007C253.576 106.875 254.396 105.642 255.468 104.243C256.54 102.844 258.027 101.622 259.93 100.578C261.833 99.5118 264.348 98.9786 267.476 98.9786C271.545 98.9786 275.176 100.023 278.369 102.111C281.563 104.198 284.068 107.208 285.883 111.139C287.721 115.07 288.639 119.801 288.639 125.332C288.639 130.862 287.731 135.604 285.916 139.558C284.101 143.489 281.607 146.521 278.435 148.653C275.263 150.763 271.643 151.818 267.575 151.818C264.512 151.818 262.008 151.296 260.061 150.252C258.136 149.208 256.627 147.987 255.533 146.587C254.439 145.188 253.598 143.944 253.007 142.856H252.416V170.009H242.606ZM252.219 125.232C252.219 128.83 252.733 131.984 253.762 134.694C254.789 137.403 256.277 139.524 258.224 141.057C260.171 142.567 262.555 143.323 265.376 143.323C268.308 143.323 270.758 142.534 272.726 140.957C274.695 139.358 276.182 137.192 277.188 134.46C278.217 131.729 278.731 128.652 278.731 125.232C278.731 121.856 278.227 118.824 277.221 116.136C276.237 113.449 274.749 111.328 272.759 109.773C270.79 108.219 268.33 107.441 265.376 107.441C262.533 107.441 260.127 108.185 258.158 109.673C256.211 111.161 254.735 113.238 253.729 115.903C252.722 118.569 252.219 121.678 252.219 125.232ZM321.352 151.851C316.386 151.851 312.11 150.774 308.523 148.62C304.957 146.443 302.201 143.389 300.254 139.458C298.33 135.504 297.367 130.873 297.367 125.565C297.367 120.323 298.33 115.703 300.254 111.705C302.201 107.708 304.913 104.587 308.391 102.344C311.891 100.101 315.982 98.9786 320.663 98.9786C323.506 98.9786 326.263 99.4563 328.931 100.411C331.6 101.366 333.995 102.866 336.117 104.909C338.239 106.952 339.912 109.607 341.137 112.872C342.362 116.114 342.974 120.057 342.974 124.699V128.23H302.912V120.767H333.36C333.36 118.146 332.836 115.826 331.785 113.804C330.736 111.761 329.259 110.151 327.356 108.974C325.475 107.796 323.266 107.208 320.728 107.208C317.972 107.208 315.566 107.896 313.51 109.274C311.476 110.628 309.901 112.405 308.785 114.604C307.691 116.781 307.145 119.146 307.145 121.7V127.531C307.145 130.951 307.735 133.861 308.916 136.26C310.12 138.658 311.793 140.491 313.937 141.757C316.08 143 318.585 143.622 321.45 143.622C323.309 143.622 325.005 143.356 326.536 142.823C328.067 142.267 329.39 141.446 330.506 140.358C331.621 139.269 332.475 137.925 333.065 136.326L342.35 138.025C341.607 140.802 340.273 143.234 338.348 145.322C336.445 147.387 334.05 148.997 331.162 150.152C328.297 151.285 325.026 151.851 321.352 151.851ZM353.859 150.819V99.6451H363.342V107.774H363.866C364.785 105.02 366.404 102.854 368.722 101.278C371.063 99.6783 373.709 98.8789 376.663 98.8789C377.275 98.8789 377.997 98.9008 378.828 98.9454C379.681 98.9899 380.348 99.0455 380.83 99.1119V108.64C380.436 108.529 379.736 108.407 378.73 108.274C377.724 108.118 376.717 108.041 375.711 108.041C373.393 108.041 371.325 108.541 369.51 109.54C367.716 110.517 366.294 111.883 365.244 113.638C364.195 115.37 363.67 117.347 363.67 119.568V150.819H353.859Z" fill="white"/>
<path d="M570 91H582.304L603.693 144.039H604.483L625.876 91H638.18V159.231H628.532V109.857H627.909L608.094 159.131H600.086L580.267 109.823H579.644V159.231H570V91ZM666.799 160.364C663.604 160.364 660.717 159.764 658.137 158.565C655.554 157.343 653.51 155.577 652.001 153.268C650.515 150.958 649.768 148.126 649.768 144.772C649.768 141.885 650.318 139.508 651.412 137.642C652.505 135.777 653.98 134.3 655.839 133.212C657.698 132.123 659.777 131.301 662.076 130.746C664.37 130.191 666.711 129.769 669.094 129.48C672.112 129.125 674.564 128.836 676.443 128.614C678.326 128.369 679.692 127.981 680.547 127.448C681.398 126.915 681.825 126.049 681.825 124.849V124.616C681.825 121.706 681.017 119.452 679.4 117.853C677.802 116.254 675.415 115.454 672.247 115.454C668.944 115.454 666.337 116.198 664.436 117.686C662.557 119.152 661.252 120.785 660.532 122.583L651.312 120.451C652.405 117.342 654.003 114.832 656.101 112.922C658.226 110.99 660.663 109.59 663.419 108.724C666.176 107.836 669.075 107.391 672.112 107.391C674.126 107.391 676.258 107.636 678.511 108.124C680.786 108.591 682.907 109.457 684.878 110.723C686.868 111.989 688.497 113.799 689.767 116.153C691.034 118.486 691.669 121.517 691.669 125.249V159.231H682.087V152.235H681.694C681.059 153.523 680.108 154.789 678.842 156.033C677.571 157.277 675.943 158.309 673.952 159.131C671.962 159.953 669.575 160.364 666.799 160.364ZM668.932 152.368C671.642 152.368 673.964 151.824 675.889 150.736C677.833 149.647 679.311 148.226 680.316 146.471C681.344 144.694 681.86 142.795 681.86 140.774V134.177C681.51 134.533 680.832 134.866 679.823 135.177C678.842 135.466 677.714 135.721 676.443 135.943C675.177 136.143 673.941 136.332 672.736 136.51C671.535 136.665 670.53 136.799 669.718 136.91C667.816 137.154 666.076 137.565 664.501 138.142C662.95 138.719 661.702 139.552 660.763 140.641C659.843 141.707 659.385 143.129 659.385 144.905C659.385 147.371 660.282 149.236 662.076 150.502C663.866 151.746 666.153 152.368 668.932 152.368ZM704.735 159.231V108.058H714.217V116.187H714.745C715.661 113.433 717.282 111.267 719.599 109.69C721.94 108.091 724.585 107.292 727.538 107.292C728.154 107.292 728.874 107.313 729.705 107.358C730.56 107.403 731.226 107.458 731.707 107.525V117.053C731.314 116.942 730.614 116.82 729.605 116.687C728.6 116.531 727.595 116.453 726.587 116.453C724.269 116.453 722.202 116.953 720.389 117.952C718.595 118.93 717.17 120.296 716.123 122.05C715.072 123.783 714.545 125.76 714.545 127.981V159.231H704.735ZM749.22 141.874L749.154 129.713H750.86L770.94 108.058H782.686L759.784 132.712H758.244L749.22 141.874ZM740.196 159.231V91H750.005V159.231H740.196ZM772.022 159.231L753.978 134.91L760.735 127.948L784.064 159.231H772.022ZM811.271 160.264C806.309 160.264 802.031 159.187 798.443 157.032C794.879 154.856 792.122 151.802 790.174 147.871C788.249 143.917 787.287 139.286 787.287 133.978C787.287 128.736 788.249 124.116 790.174 120.118C792.122 116.12 794.836 113 798.313 110.756C801.812 108.513 805.904 107.391 810.586 107.391C813.427 107.391 816.183 107.869 818.851 108.824C821.519 109.779 823.918 111.278 826.039 113.322C828.16 115.365 829.835 118.019 831.059 121.284C832.283 124.527 832.895 128.469 832.895 133.111V136.643H792.834V129.18H823.282C823.282 126.559 822.755 124.238 821.708 122.217C820.657 120.174 819.178 118.563 817.277 117.386C815.398 116.209 813.188 115.621 810.651 115.621C807.895 115.621 805.489 116.309 803.433 117.686C801.396 119.041 799.822 120.818 798.705 123.017C797.612 125.193 797.065 127.559 797.065 130.113V135.943C797.065 139.364 797.658 142.273 798.836 144.672C800.041 147.071 801.716 148.903 803.856 150.169C806.001 151.413 808.507 152.035 811.371 152.035C813.231 152.035 814.924 151.768 816.457 151.235C817.989 150.68 819.313 149.858 820.426 148.77C821.542 147.682 822.397 146.338 822.986 144.739L832.272 146.438C831.529 149.214 830.193 151.646 828.268 153.734C826.366 155.8 823.971 157.41 821.084 158.565C818.216 159.698 814.948 160.264 811.271 160.264ZM867.305 108.058V116.053H839.779V108.058H867.305ZM847.159 95.7972H856.972V144.205C856.972 146.138 857.253 147.593 857.823 148.57C858.393 149.525 859.124 150.181 860.021 150.536C860.941 150.869 861.934 151.035 863.008 151.035C863.794 151.035 864.483 150.98 865.076 150.869C865.665 150.758 866.123 150.669 866.454 150.602L868.225 158.831C867.655 159.053 866.847 159.276 865.796 159.498C864.745 159.742 863.432 159.875 861.857 159.898C859.278 159.942 856.872 159.476 854.639 158.498C852.41 157.521 850.604 156.011 849.226 153.967C847.848 151.924 847.159 149.358 847.159 146.271V95.7972Z" fill="white"/>
<path d="M438.154 76.5451V62.4724C438.154 50.8143 448.175 41.3633 460.533 41.3633C466.266 41.3633 471.494 43.3956 475.451 46.7383C479.409 43.3956 484.637 41.3633 490.369 41.3633C502.727 41.3633 512.748 50.8143 512.748 62.4724V76.5451H523.936C530.115 76.5451 535.123 81.2704 535.123 87.0996V153.945C535.123 163.844 529.706 172.55 521.514 177.568L517.445 176.893C511.666 175.936 505.707 172.931 501.222 168.643C496.744 164.361 494.1 159.17 494.1 153.945V76.5451H501.557V62.4724C501.557 56.6431 496.548 51.9178 490.369 51.9178C486.901 51.9178 483.801 53.4064 481.75 55.7433C482.504 57.8569 482.912 60.1195 482.912 62.4724V153.945C482.912 162.592 487.251 170.314 493.257 176.056C495.655 178.349 498.377 180.385 501.307 182.091H445.615C429.138 182.091 415.779 169.489 415.779 153.945V87.0996C415.779 81.2704 420.788 76.5451 426.967 76.5451H438.154ZM449.346 62.4724V76.5451H471.721V62.4724C471.721 56.6431 466.712 51.9178 460.533 51.9178C454.354 51.9178 449.346 56.6431 449.346 62.4724Z" fill="white"/>
</svg>
